# xmcd
#
# Track frame offsets:
#	150
#	12006
#	24858
#	36658
#	47343
#	61288
#	74613
#	86162
#	98185
#	108933
#	123255
#	136044
#	150003
#	160765
#	173345
#	183800
#	194715
#	206410
#	218426
#	232072
#	242527
#	255476
#	268996
#	280239
#	291684
#	304571
#	319185
#	328623
#
# Disc length: 4581 seconds
#
# Revision: 0
# Processed by: cddbd v1.5.2PL0 Copyright (c) Steve Scherf et al.
# Submitted via: EZCDAudioConverter 1.0.8.1
#
DISCID=8011e31c
DTITLE=B. B. King - The Vintage Years - 3 CD
DYEAR=2002
DGENRE=Blues
TTITLE0=Love You Baby
TTITLE1=When My Heart Beats Like A Hammer
TTITLE2=The Woman I Love
TTITLE3=Everything I Do Is Wrong
TTITLE4=Whole Lotta' Love
TTITLE5=Boogie Rock
TTITLE6=Dark Is The Night Pt 1
TTITLE7=Dark Is The Night Pt 2
TTITLE8=Let's Do The Boogie
TTITLE9=Sweet Little Angel
TTITLE10=Confessin' The Blues
TTITLE11=Baby, Look At You
TTITLE12=You Don't Know
TTITLE13=Be Careful With A Fool
TTITLE14=Recession Blues
TTITLE15=Days Of Old
TTITLE16=You Know I Go For You
TTITLE17=Don't Look Now, But I've Got The Blues
TTITLE18=Sweet Thing
TTITLE19=I've Got Papers On You, Baby
TTITLE20=Tomorrow Is Another Day
TTITLE21=Sneakin' Around
TTITLE22=Please Accept My Love
TTITLE23=Early In The Morning
TTITLE24=On My Word Of Honor
TTITLE25=Don't Get Around Much Anymore
TTITLE26=Why Not
TTITLE27=Precious Lord
EXTD=
EXTT0=
EXTT1=
EXTT2=
EXTT3=
EXTT4=
EXTT5=
EXTT6=
EXTT7=
EXTT8=
EXTT9=
EXTT10=
EXTT11=
EXTT12=
EXTT13=
EXTT14=
EXTT15=
EXTT16=
EXTT17=
EXTT18=
EXTT19=
EXTT20=
EXTT21=
EXTT22=
EXTT23=
EXTT24=
EXTT25=
EXTT26=
EXTT27=
PLAYORDER=
